HIERARCHY
ROOT Hips
{
 OFFSET 0.000000 0.000000 0.000000
 CHANNELS 6 Xposition Yposition Zposition Yrotation Xrotation Zrotation
 JOINT Chest
 {
  OFFSET 0.000000 9.588913 -0.003946
  CHANNELS 3 Yrotation Xrotation Zrotation
  JOINT Chest2
  {
   OFFSET 0.000000 9.541882 0.008053
   CHANNELS 3 Yrotation Xrotation Zrotation
   JOINT Chest3
   {
    OFFSET 0.000000 9.501360 0.000000
    CHANNELS 3 Yrotation Xrotation Zrotation
    JOINT Chest4
    {
     OFFSET 0.000000 9.491660 0.000000
     CHANNELS 3 Yrotation Xrotation Zrotation
     JOINT Neck
     {
      OFFSET 0.000000 14.331917 0.000000
      CHANNELS 3 Yrotation Xrotation Zrotation
      JOINT Head
      {
       OFFSET 0.000000 8.884799 0.017034
       CHANNELS 3 Yrotation Xrotation Zrotation
       End Site
       {
        OFFSET 0.000000 16.896195 0.008993
       }
      }
     }
     JOINT RightCollar
     {
      OFFSET -2.923010 9.499495 0.000000
      CHANNELS 3 Yrotation Xrotation Zrotation
      JOINT RightShoulder
      {
       OFFSET -13.795216 0.000000 0.000000
       CHANNELS 3 Yrotation Xrotation Zrotation
       JOINT RightElbow
       {
        OFFSET -30.272209 0.000000 0.000000
        CHANNELS 3 Yrotation Xrotation Zrotation
        JOINT RightWrist
        {
         OFFSET -24.478199 0.000000 0.000000
         CHANNELS 3 Yrotation Xrotation Zrotation
         End Site
         {
          OFFSET -18.090752 0.000000 0.000000
         }
        }
       }
      }
     }
     JOINT LeftCollar
     {
      OFFSET 2.923010 9.499495 0.000000
      CHANNELS 3 Yrotation Xrotation Zrotation
      JOINT LeftShoulder
      {
       OFFSET 13.795216 0.000000 0.000000
       CHANNELS 3 Yrotation Xrotation Zrotation
       JOINT LeftElbow
       {
        OFFSET 30.272209 0.000000 0.000000
        CHANNELS 3 Yrotation Xrotation Zrotation
        JOINT LeftWrist
        {
         OFFSET 24.478199 0.000000 0.000000
         CHANNELS 3 Yrotation Xrotation Zrotation
         End Site
         {
          OFFSET 18.090752 0.000000 0.000000
         }
        }
       }
      }
     }
    }
   }
  }
 }
 JOINT RightHip
 {
  OFFSET -7.826875 0.019532 0.001973
  CHANNELS 3 Yrotation Xrotation Zrotation
  JOINT RightKnee
  {
   OFFSET 0.000000 -40.546152 -0.001885
   CHANNELS 3 Yrotation Xrotation Zrotation
   JOINT RightAnkle
   {
    OFFSET 0.000000 -39.417092 -0.003189
    CHANNELS 3 Yrotation Xrotation Zrotation
    JOINT RightToe
    {
     OFFSET 0.000000 -7.579396 17.243563
     CHANNELS 3 Yrotation Xrotation Zrotation
     End Site
     {
      OFFSET 0.000000 -1.500329 6.694466
     }
    }
   }
  }
 }
 JOINT LeftHip
 {
  OFFSET 7.826875 0.019532 0.001973
  CHANNELS 3 Yrotation Xrotation Zrotation
  JOINT LeftKnee
  {
   OFFSET 0.000000 -40.546152 -0.001885
   CHANNELS 3 Yrotation Xrotation Zrotation
   JOINT LeftAnkle
   {
    OFFSET 0.000000 -39.417092 -0.003189
    CHANNELS 3 Yrotation Xrotation Zrotation
    JOINT LeftToe
    {
     OFFSET 0.000000 -7.579396 17.243563
     CHANNELS 3 Yrotation Xrotation Zrotation
     End Site
     {
      OFFSET 0.000000 -1.500329 6.694466
     }
    }
   }
  }
 }
}
MOTION
Frames: 7
Frame Time: 0.008333
-5.710533 88.794846 0.748274 -138.054377 -6.354014 -2.267138 -0.188957 6.030364 1.349949 -0.145404 3.456830 0.615643 -0.176025 4.321276 0.768537 -0.145419 3.456851 0.615658 1.363244 16.066604 -2.378620 3.380124 -5.861241 -4.906663 -0.904526 -0.351998 -8.556363 -11.096549 -16.803200 54.481743 79.933580 30.284470 14.965420 26.891023 1.369734 -27.025130 2.569369 -0.694822 2.440805 7.804241 7.295164 -79.050514 -33.080133 10.116206 -14.828244 -1.241368 -4.344156 1.004523 -5.195474 3.396400 2.333040 1.368386 6.631231 1.230918 -3.135482 -5.757702 0.136634 -0.073212 0.436641 -0.054423 4.500939 -1.914663 3.667278 0.769182 18.470662 0.709035 6.022957 -9.587757 -2.779213 0.028639 -0.393935 0.050509
-5.841691 88.804890 0.729053 -138.007389 -6.309162 -2.287003 -0.345241 5.846109 1.414380 -0.233187 3.351885 0.660639 -0.285559 4.190266 0.824022 -0.233200 3.351902 0.660653 1.502925 16.223589 -2.550463 3.691920 -5.553027 -5.267647 -1.238150 -0.509404 -8.857340 -11.044638 -17.902753 53.193413 80.612817 29.513181 14.926002 26.894365 1.339554 -26.742093 2.563012 -0.614353 2.533159 7.776351 7.428012 -79.241645 -32.953469 10.102366 -14.762607 -1.312728 -4.358078 0.982014 -5.190494 3.484758 2.304173 1.356801 6.512364 1.187201 -3.178712 -5.790497 0.241996 -0.068833 0.414764 -0.056533 4.421493 -1.870394 3.611522 0.804765 18.450201 0.735633 6.048186 -9.656653 -2.761975 0.022758 -0.387985 0.051479
-5.971232 88.815217 0.710609 -137.939172 -6.255675 -2.304898 -0.493574 5.661128 1.471405 -0.316213 3.246367 0.701746 -0.389202 4.058548 0.874734 -0.316225 3.246381 0.701758 1.623840 16.374785 -2.709233 3.963385 -5.256231 -5.596896 -1.546719 -0.695280 -9.159646 -10.920905 -18.983902 51.895531 81.201174 28.733029 14.803322 26.892114 1.296677 -26.425708 2.544278 -0.541567 2.627083 7.735208 7.555111 -79.416379 -32.834663 10.072383 -14.706859 -1.379169 -4.382012 0.956582 -5.193690 3.570291 2.278221 1.338703 6.384404 1.134930 -3.231443 -5.820204 0.354732 -0.064977 0.394093 -0.060913 4.340741 -1.834563 3.554123 0.835914 18.421699 0.758972 6.057700 -9.718342 -2.739995 0.017426 -0.382594 0.052106
-6.098681 88.825572 0.692861 -137.857736 -6.193150 -2.323833 -0.631514 5.474623 1.521007 -0.392846 3.139771 0.739372 -0.484899 3.925485 0.921196 -0.392856 3.139782 0.739383 1.726596 16.519816 -2.856653 4.196529 -4.971768 -5.898107 -1.828040 -0.913499 -9.458175 -10.721154 -20.049768 50.591399 81.694427 27.995549 14.598072 26.884460 1.225449 -26.132690 2.517392 -0.475384 2.717166 7.694233 7.673066 -79.560588 -32.726014 10.035038 -14.669348 -1.436202 -4.409494 0.925293 -5.200589 3.649758 2.256710 1.314068 6.251316 1.078753 -3.287614 -5.846460 0.469629 -0.061156 0.372910 -0.065213 4.266828 -1.808277 3.498865 0.859286 18.386895 0.778884 6.054485 -9.775551 -2.713079 0.011947 -0.376480 0.051640
-6.223874 88.835666 0.675965 -137.768975 -6.120841 -2.344687 -0.757905 5.286758 1.563423 -0.462294 3.032128 0.773171 -0.571665 3.791110 0.962975 -0.462303 3.032137 0.773181 1.812762 16.658342 -2.993415 4.394755 -4.700413 -6.173372 -2.075278 -1.160473 -9.742815 -10.447496 -21.110779 49.248710 82.097102 27.329767 14.323044 26.878101 1.146579 -25.910348 2.486744 -0.411698 2.803564 7.664714 7.774513 -79.671755 -32.627557 9.999412 -14.653300 -1.481924 -4.428915 0.887109 -5.211710 3.721444 2.237978 1.284911 6.113833 1.023041 -3.338334 -5.868317 0.582040 -0.056567 0.350891 -0.067474 4.203432 -1.792037 3.447187 0.869950 18.346316 0.795948 6.039615 -9.829912 -2.682204 0.005707 -0.368860 0.049663
-6.347438 88.845223 0.660339 -137.671180 -6.039418 -2.364025 -0.874508 5.099127 1.597835 -0.525802 2.924383 0.801483 -0.651063 3.656600 0.997980 -0.525810 2.924390 0.801491 1.885048 16.788931 -3.118827 4.563142 -4.444918 -6.422636 -2.280364 -1.428917 -10.000583 -10.110195 -22.172048 47.840288 82.422523 26.739452 13.992089 26.881935 1.096580 -25.757913 2.455938 -0.349712 2.891220 7.653020 7.857234 -79.755844 -32.544041 9.975705 -14.656282 -1.516950 -4.439607 0.840358 -5.236162 3.785456 2.217898 1.251402 5.973823 0.967987 -3.380801 -5.887820 0.691716 -0.051458 0.329541 -0.068253 4.143157 -1.784220 3.395080 0.870275 18.299455 0.811090 6.012570 -9.880743 -2.648144 -0.001032 -0.360228 0.046603
-6.469838 88.854041 0.646024 -137.564604 -5.950554 -2.379420 -0.980107 4.913734 1.624115 -0.583016 2.817560 0.823410 -0.722650 3.523227 1.025087 -0.583022 2.817564 0.823417 1.943586 16.909948 -3.232570 4.702129 -4.208522 -6.645651 -2.448656 -1.719258 -10.235216 -9.705752 -23.220452 46.383789 82.672972 26.230065 13.599044 26.908078 1.087589 -25.631328 2.424750 -0.290717 2.984246 7.649960 7.924478 -79.823847 -32.479701 9.963003 -14.667575 -1.542699 -4.445698 0.786645 -5.279331 3.841956 2.192904 1.216461 5.834735 0.915401 -3.414759 -5.907507 0.797643 -0.046377 0.310043 -0.067845 4.080479 -1.782932 3.336778 0.865319 18.246525 0.824252 5.990925 -9.927337 -2.612232 -0.006209 -0.350850 0.044247
